<svg width="16" height="12" viewBox="0 0 16 12" fill="none" xmlns="http://www.w3.org/2000/svg">
  <path fill-rule="evenodd" clip-rule="evenodd"
        d="M0 1.875C0 0.842747 0.836214 0 1.86047 0H14.1395C15.1638 0 16 0.842747 16 1.875V10.125C16 11.1572 15.1638 12 14.1395 12H1.86047C0.836214 12 0 11.1572 0 10.125V1.875ZM14.1395 0.75H1.86047C1.23562 0.75 0.744186 1.24527 0.744186 1.875V10.125C0.744186 10.7547 1.23562 11.25 1.86047 11.25H14.1395C14.7644 11.25 15.2558 10.7547 15.2558 10.125V1.875C15.2558 1.24527 14.7644 0.75 14.1395 0.75ZM6.67442 2.9707C6.49144 2.98053 6.33208 3.17158 6.33721 3.375V8.625C6.33373 8.76617 6.40454 8.90659 6.51471 8.97703C6.62489 9.04748 6.76977 9.04494 6.87791 8.97066L10.9709 6.34566C11.1933 6.21101 11.1933 5.7889 10.9709 5.65425L6.87791 3.02925C6.81743 2.98763 6.74548 2.96691 6.67442 2.97066V2.9707ZM10.0756 6L7.05233 4.06055V7.93359L10.0756 6Z"
        fill="white"/>
</svg>
